<svg xmlns="http://www.w3.org/2000/svg" width="760" height="262" viewBox="0 0 760 262" font-family="Helvetica Neue, Arial, sans-serif" role="img">
<title>Justification Half-Life is the time at which the probability of revocation or disuse reaches one half, and it differs by access category</title>
<rect width="760" height="262" fill="#FBFBF9"/>
<defs><marker id="a4" viewBox="0 0 10 10" refX="8" refY="5" markerWidth="7" markerHeight="7" orient="auto-start-reverse"><path d="M1 1 L9 5 L1 9" fill="none" stroke="#5B6572" stroke-width="1.6" stroke-linecap="round" stroke-linejoin="round"/></marker></defs>
<text x="30" y="30" font-size="15" fill="#21272E" text-anchor="start" font-weight="600" >Justification Half-Life: relevance decays at category-specific rates</text>
<line x1="80" y1="220" x2="80" y2="70" stroke="#5B6572" stroke-width="1.2" marker-end="url(#a4)"/>
<line x1="80" y1="220" x2="640" y2="220" stroke="#5B6572" stroke-width="1.2" marker-end="url(#a4)"/>
<text x="80" y="58" font-size="11" fill="#5B6572" text-anchor="start" font-weight="normal" >P(justification still relevant)</text>
<text x="360.0" y="246" font-size="11" fill="#5B6572" text-anchor="middle" font-weight="normal" >time since approval</text>
<text x="72" y="84" font-size="10" fill="#5B6572" text-anchor="end" font-weight="normal" >1.0</text>
<text x="72" y="149.0" font-size="10" fill="#5B6572" text-anchor="end" font-weight="normal" >0.5</text>
<line x1="80" y1="145.0" x2="640" y2="145.0" stroke="#C9CFD6" stroke-width="1" stroke-dasharray="4 4"/>
<path d="M 80 70 Q 170 80 230 145.0 T 400 204" fill="none" stroke="#B97D10" stroke-width="2"/>
<path d="M 80 70 Q 310 86 500 145.0 T 640 178" fill="none" stroke="#0E7C6B" stroke-width="2"/>
<line x1="230" y1="145.0" x2="230" y2="220" stroke="#B97D10" stroke-width="1" stroke-dasharray="3 3"/>
<line x1="500" y1="145.0" x2="500" y2="220" stroke="#0E7C6B" stroke-width="1" stroke-dasharray="3 3"/>
<text x="126" y="136" font-size="11" fill="#B97D10" text-anchor="start" font-weight="normal" >project-scoped access</text>
<text x="230" y="234" font-size="11" fill="#B97D10" text-anchor="middle" font-weight="600" >JHL</text>
<text x="510" y="144" font-size="11" fill="#0E7C6B" text-anchor="start" font-weight="normal" >core role access</text>
<text x="500" y="234" font-size="11" fill="#0E7C6B" text-anchor="middle" font-weight="600" >JHL</text>
</svg>
